<svg preserveAspectRatio="none" overflow="visible" style="display: block;" width="36.0004" height="36" viewBox="0 0 36.0004 36" fill="none" xmlns="http://www.w3.org/2000/svg">
<path id="Icon" d="M21.0757 32.4054C20.7632 32.8904 20.3146 33.293 19.7748 33.5728C19.235 33.8527 18.6231 34 18.0002 34C17.3773 34 16.7653 33.8527 16.2256 33.5728C15.6858 33.293 15.2372 32.8904 14.9246 32.4054M28.6668 11.6017C28.6668 9.05517 27.543 6.61294 25.5426 4.81227C23.5423 3.0116 20.8292 2 18.0002 2C15.1712 2 12.4581 3.0116 10.4577 4.81227C8.45732 6.61294 7.33351 9.05517 7.33351 11.6017C7.33351 22.8037 2.00017 26.0043 2.00017 26.0043H34.0002C34.0002 26.0043 28.6668 22.8037 28.6668 11.6017Z" stroke="#1E1E1E" stroke-width="4" stroke-linecap="round" stroke-linejoin="round"/>
</svg>
